<?xml version="1.0" standalone="no"?>
<!DOCTYPE svg PUBLIC "-//W3C//DTD SVG 20010904//EN"
 "http://www.w3.org/TR/2001/REC-SVG-20010904/DTD/svg10.dtd">
<svg version="1.0" xmlns="http://www.w3.org/2000/svg"
 width="600.000000pt" height="600.000000pt" viewBox="0 0 600.000000 600.000000"
 preserveAspectRatio="xMidYMid meet">
<metadata>
Created by potrace 1.11, written by Peter Selinger 2001-2013
</metadata>
<g transform="translate(0.000000,600.000000) scale(0.100000,-0.100000)"
fill="#000000" stroke="none">
<path d="M0 3000 l0 -3000 3000 0 3000 0 0 3000 0 3000 -3000 0 -3000 0 0
-3000z m3255 2509 c55 -6 136 -18 180 -26 44 -9 100 -19 125 -24 108 -18 326
-90 484 -159 160 -70 396 -214 516 -315 179 -150 218 -186 284 -259 202 -226
346 -440 449 -669 52 -115 118 -304 151 -427 79 -303 97 -701 46 -1030 -43
-271 -141 -567 -262 -790 -107 -197 -284 -434 -444 -596 -150 -151 -397 -334
-594 -442 -145 -79 -372 -166 -560 -216 -390 -102 -885 -100 -1280 6 -281 75
-606 226 -808 375 -325 241 -561 504 -750 836 -105 184 -223 497 -251 667 -5
25 -15 81 -24 125 -54 278 -51 552 9 915 55 330 211 700 417 985 327 453 760
769 1287 938 135 44 315 81 505 105 103 13 405 14 520 1z"/>
<path d="M682 3495 c-85 -140 -103 -268 -58 -397 46 -129 114 -217 245 -318
146 -110 312 -177 561 -226 129 -26 417 -26 540 0 263 54 420 118 575 233 92
68 225 206 225 233 0 26 -19 37 -90 53 -36 8 -114 27 -175 42 -60 15 -139 33
-174 41 -35 8 -73 19 -84 25 -11 6 -43 15 -71 19 -28 4 -64 13 -81 18 -16 6
-73 21 -125 32 -186 42 -426 101 -488 121 -34 10 -72 19 -85 19 -12 1 -33 7
-47 15 -14 8 -36 14 -49 15 -14 0 -54 9 -90 20 -36 10 -120 31 -186 46 -66 14
-149 35 -184 45 -104 31 -121 27 -159 -36z"/>
<path d="M5045 3440 c-33 -10 -112 -30 -175 -44 -63 -15 -137 -33 -165 -40
-27 -8 -70 -19 -95 -25 -25 -6 -143 -36 -264 -67 -120 -30 -237 -59 -260 -63
-22 -5 -77 -19 -121 -30 -89 -24 -528 -134 -590 -148 -25 -5 -41 -15 -43 -26
-5 -26 120 -159 202 -215 216 -148 434 -212 731 -215 156 -1 227 7 360 40 293
72 507 233 587 440 42 108 24 240 -48 355 -26 41 -43 59 -54 57 -3 -1 -32 -9
-65 -19z"/>
<path d="M3530 1560 c-8 -5 -37 -17 -65 -26 -27 -8 -77 -26 -110 -39 -33 -13
-93 -34 -133 -46 -40 -12 -75 -26 -78 -30 -3 -5 -15 -9 -27 -9 -12 0 -58 -14
-102 -31 -44 -17 -96 -35 -115 -40 -19 -5 -66 -20 -105 -34 -38 -15 -108 -38
-155 -52 -113 -35 -118 -40 -96 -97 37 -97 177 -244 279 -294 149 -72 272 -80
422 -27 150 54 257 146 327 282 68 131 82 256 44 398 -12 44 -16 50 -42 53
-16 1 -36 -2 -44 -8z"/>
</g>
</svg>
